<svg width="58" height="10" viewBox="0 0 58 10" fill="none" xmlns="http://www.w3.org/2000/svg">
<path d="M10.3553 0.38375V9.5H8.62869V4.7485L8.72538 2.08269H8.69775L6.17006 9.5H4.60925L2.09538 2.08269H2.06775L2.16444 4.7485V9.5H0.437875V0.38375H3.20038L4.84406 5.35625L5.42419 7.41431H5.45181L6.04575 5.37006L7.67563 0.38375H10.3553ZM12.918 9.5V0.38375H19.7552V1.91694H14.8241V4.18219H18.7054V5.64631H14.8241V7.96681H19.9485V9.5H12.918Z" fill="#F3508C"/>
<path d="M25.3727 0.38375C26.8 0.38375 27.905 0.779708 28.6877 1.57162C29.4704 2.35433 29.8618 3.47775 29.8618 4.94187C29.8618 6.39679 29.4704 7.52021 28.6877 8.31212C27.905 9.10404 26.8 9.5 25.3727 9.5H21.8505V0.38375H25.3727ZM25.276 7.98062C26.1416 7.98062 26.7908 7.72279 27.2236 7.20712C27.6656 6.68225 27.8866 5.92717 27.8866 4.94187C27.8866 3.95658 27.6656 3.2061 27.2236 2.69044C26.7908 2.16556 26.1416 1.90312 25.276 1.90312H23.7567V7.98062H25.276ZM33.8762 0.38375V9.5H31.9701V0.38375H33.8762ZM44.242 6.98612C44.067 7.57546 43.7908 8.0681 43.4132 8.46406C43.0357 8.86002 42.5891 9.15469 42.0734 9.34806C41.5577 9.54144 40.9914 9.63813 40.3745 9.63813C39.472 9.63813 38.6893 9.44935 38.0263 9.07181C37.3725 8.69427 36.8661 8.15558 36.507 7.45575C36.157 6.75592 35.9821 5.91796 35.9821 4.94187C35.9821 3.96579 36.157 3.12783 36.507 2.428C36.8661 1.72817 37.3725 1.18948 38.0263 0.811937C38.6893 0.434396 39.4628 0.245625 40.3468 0.245625C40.973 0.245625 41.5393 0.333104 42.0458 0.508062C42.5522 0.673812 42.9804 0.931646 43.3303 1.28156C43.6895 1.63148 43.9519 2.07348 44.1177 2.60756L42.3911 3.33962C42.2345 2.78712 41.9951 2.39577 41.6728 2.16556C41.3505 1.92615 40.9362 1.80644 40.4297 1.80644C39.9325 1.80644 39.4951 1.92615 39.1175 2.16556C38.7492 2.40498 38.4637 2.7595 38.2612 3.22912C38.0586 3.68954 37.9573 4.26046 37.9573 4.94187C37.9573 5.61408 38.0494 6.185 38.2335 6.65462C38.4269 7.12425 38.7078 7.47877 39.0761 7.71819C39.4444 7.9576 39.8956 8.07731 40.4297 8.07731C40.927 8.07731 41.3552 7.94379 41.7143 7.67675C42.0826 7.40971 42.3404 7.00454 42.4878 6.46125L44.242 6.98612ZM53.973 9.5H51.9978L51.2381 7.27619H47.7435L46.9838 9.5H45.0363L48.3651 0.38375H50.6441L53.973 9.5ZM48.1717 5.86731H50.8099L49.4839 1.88931L48.1717 5.86731ZM56.5195 7.38669C56.8878 7.38669 57.1779 7.48798 57.3897 7.69056C57.6107 7.89315 57.7212 8.16479 57.7212 8.5055C57.7212 8.85542 57.6107 9.13167 57.3897 9.33425C57.1779 9.52763 56.8878 9.62431 56.5195 9.62431C56.1512 9.62431 55.8565 9.52763 55.6355 9.33425C55.4237 9.13167 55.3178 8.85542 55.3178 8.5055C55.3178 8.16479 55.4237 7.89315 55.6355 7.69056C55.8565 7.48798 56.1512 7.38669 56.5195 7.38669Z" fill="#313038"/>
</svg>
