<?xml version="1.0" standalone="no"?>
<!DOCTYPE svg PUBLIC "-//W3C//DTD SVG 20010904//EN"
 "http://www.w3.org/TR/2001/REC-SVG-20010904/DTD/svg10.dtd">
<svg version="1.0" xmlns="http://www.w3.org/2000/svg"
 width="640.000000pt" height="640.000000pt" viewBox="0 0 640.000000 640.000000"
 preserveAspectRatio="xMidYMid meet">
<metadata>
Created by potrace 1.16, written by Peter Selinger 2001-2019
</metadata>
<g transform="translate(0.000000,640.000000) scale(0.100000,-0.100000)"
fill="#000000" stroke="none">
<path d="M2828 6384 c-591 -68 -1169 -310 -1643 -689 -128 -102 -378 -352
-480 -480 -383 -480 -623 -1055 -690 -1655 -20 -180 -20 -544 0 -720 70 -607
306 -1175 690 -1655 102 -128 352 -378 480 -480 480 -384 1048 -620 1655 -690
178 -20 542 -20 720 0 607 70 1175 306 1655 690 128 102 378 352 480 480 384
480 620 1048 690 1655 20 178 20 542 0 720 -70 607 -306 1175 -690 1655 -102
128 -352 378 -480 480 -480 383 -1055 623 -1655 690 -167 18 -568 18 -732 -1z"/>
</g>
</svg>
