<svg width="44" height="44" viewBox="0 0 44 44" fill="none" xmlns="http://www.w3.org/2000/svg">
<path fill-rule="evenodd" clip-rule="evenodd" d="M5.84768 9.38931C6.84397 8.39302 8.19523 7.83331 9.60419 7.83331H34.3959C35.8048 7.83331 37.1561 8.39302 38.1524 9.38931C39.1486 10.3856 39.7084 11.7368 39.7084 13.1458V18.4583C39.7084 18.928 39.5218 19.3784 39.1897 19.7105C38.8576 20.0426 38.4072 20.2291 37.9375 20.2291C37.4679 20.2291 37.0175 20.4157 36.6854 20.7478C36.3533 21.0799 36.1667 21.5303 36.1667 22C36.1667 22.4696 36.3533 22.92 36.6854 23.2521C37.0175 23.5842 37.4679 23.7708 37.9375 23.7708C38.9155 23.7708 39.7084 24.5636 39.7084 25.5416V30.8541C39.7084 32.2631 39.1486 33.6144 38.1524 34.6106C37.1561 35.6069 35.8048 36.1666 34.3959 36.1666H9.60419C8.19522 36.1666 6.84397 35.6069 5.84768 34.6106C4.8514 33.6144 4.29169 32.2631 4.29169 30.8541V25.5416C4.29169 24.5636 5.08452 23.7708 6.06252 23.7708C6.53217 23.7708 6.98259 23.5842 7.31469 23.2521C7.64678 22.92 7.83335 22.4696 7.83335 22C7.83335 21.5303 7.64678 21.0799 7.31469 20.7478C6.98259 20.4157 6.53217 20.2291 6.06252 20.2291C5.08452 20.2291 4.29169 19.4363 4.29169 18.4583V13.1458C4.29169 11.7369 4.85139 10.3856 5.84768 9.38931ZM29.0834 32.625V30.8541C29.0834 29.8761 28.2905 29.0833 27.3125 29.0833C26.3345 29.0833 25.5417 29.8761 25.5417 30.8541V32.625H9.60419C9.13453 32.625 8.68411 32.4384 8.35202 32.1063C8.01992 31.7742 7.83335 31.3238 7.83335 30.8541V27.0087C8.57339 26.747 9.25341 26.3221 9.81903 25.7565C10.8153 24.7602 11.375 23.4089 11.375 22C11.375 20.591 10.8153 19.2398 9.81903 18.2435C9.25341 17.6779 8.57339 17.253 7.83335 16.9913V13.1458C7.83335 12.6762 8.01992 12.2257 8.35202 11.8936C8.68411 11.5615 9.13453 11.375 9.60419 11.375H25.5417V13.1458C25.5417 14.1238 26.3345 14.9166 27.3125 14.9166C28.2905 14.9166 29.0834 14.1238 29.0834 13.1458V11.375H34.3959C34.8655 11.375 35.3159 11.5615 35.648 11.8936C35.9801 12.2257 36.1667 12.6762 36.1667 13.1458V16.9913C35.4267 17.253 34.7466 17.6779 34.181 18.2435C33.1847 19.2398 32.625 20.591 32.625 22C32.625 23.4089 33.1847 24.7602 34.181 25.7565C34.7466 26.3221 35.4267 26.747 36.1667 27.0087V30.8541C36.1667 31.3238 35.9801 31.7742 35.648 32.1063C35.3159 32.4384 34.8655 32.625 34.3959 32.625H29.0834ZM27.3125 18.4583C28.2905 18.4583 29.0834 19.2511 29.0834 20.2291V23.7708C29.0834 24.7488 28.2905 25.5416 27.3125 25.5416C26.3345 25.5416 25.5417 24.7488 25.5417 23.7708V20.2291C25.5417 19.2511 26.3345 18.4583 27.3125 18.4583Z" fill="#0DB76F"/>
</svg>
